PathFileType   4   (X/Y/Z)
DataRate	CameraRate	NumFrames	NumMarkers	Units	OrigDataRate	OrigDataStartFrame	OrigNumFrames
120.0	120.0	8	37	mm	120.0	114	182
Frame#	Time	midhip	hip_r	hip_l	knee_r	knee_l	ankle_r	ankle_l	midasis	asis_r	asis_l	psis_r	psis_l	epicondLat_r	epicondLat_l	epicondMed_r	epicondMed_l	malleolusLat_r	malleolusLat_l	malleolusMedv_r	malleolusMedv_l	neck	subclavicle_r	subclavicle_l	sternalnotch	xyphoidprocess	thighwand_r	thighwand_l	upperleg1_r	upperleg1_l	upperleg2_r	upperleg2_l	shankwand_r	shankwand_l	lowerleg1_r	lowerleg1_l	toe_r	toe_l
 	 	X1	Y1	Z1	X2	Y2	Z2	X3	Y3	Z3	X4	Y4	Z4	X5	Y5	Z5	X6	Y6	Z6	X7	Y7	Z7	X8	Y8	Z8	X9	Y9	Z9	X10	Y10	Z10	X11	Y11	Z11	X12	Y12	Z12	X13	Y13	Z13	X14	Y14	Z14	X15	Y15	Z15	X16	Y16	Z16	X17	Y17	Z17	X18	Y18	Z18	X19	Y19	Z19	X20	Y20	Z20	X21	Y21	Z21	X22	Y22	Z22	X23	Y23	Z23	X24	Y24	Z24	X25	Y25	Z25	X26	Y26	Z26	X27	Y27	Z27	X28	Y28	Z28	X29	Y29	Z29	X30	Y30	Z30	X31	Y31	Z31	X32	Y32	Z32	X33	Y33	Z33	X34	Y34	Z34	X35	Y35	Z35	X36	Y36	Z36	X37	Y37	Z37

	114	1.20000	-370.217	902.055	285.842	-360.329	891.339	341.842	-381.912	889.211	237.502	-308.758	488.445	329.819	-348.716	473.757	190.642	-343.637	70.784	319.886	-614.811	146.539	199.761	-294.914	987.502	271.926	-273.794	989.584	374.027	-316.034	985.420	169.825	-483.983	1013.624	344.717	-502.492	1011.914	261.841	-295.504	488.411	387.824	-357.857	479.625	132.142	-326.274	502.687	270.095	-338.156	463.804	240.957	-345.398	70.028	357.837	-623.735	152.737	161.785	-345.087	76.574	287.921	-601.831	159.598	226.848	-413.242	1470.274	309.200	-310.530	1390.628	376.847	-330.935	1398.217	222.688	-333.371	1396.576	297.545	-308.735	1194.074	277.503	-269.620	589.885	470.067	-208.847	606.388	156.175	-261.133	654.691	400.780	-294.356	662.864	139.574	-259.667	574.690	372.938	-297.366	574.537	139.977	-322.002	142.506	426.645	-466.517	178.607	182.003	-338.210	202.548	367.856	-487.308	259.119	182.555	-220.074	42.699	305.238	-535.115	57.273	205.117
	115	1.20833	-365.958	902.223	285.676	-355.808	891.411	341.710	-377.732	889.539	237.436	-306.366	488.237	329.433	-339.706	474.422	190.495	-343.644	70.775	319.708	-602.306	144.937	198.942	-290.709	987.817	271.833	-269.255	989.649	373.871	-312.162	985.985	169.796	-479.564	1013.609	345.206	-498.401	1012.035	262.395	-292.888	488.125	387.386	-348.593	480.228	131.950	-324.002	502.516	269.959	-329.738	464.615	241.100	-345.262	70.036	357.666	-611.299	151.131	160.982	-345.064	76.488	287.687	-589.347	157.469	226.147	-408.783	1470.433	309.871	-306.124	1390.745	377.274	-326.774	1398.392	223.152	-329.089	1396.734	298.012	-304.673	1194.215	277.878	-266.185	589.547	469.514	-201.320	608.492	156.926	-257.674	654.349	400.180	-287.450	664.012	139.801	-256.678	574.393	372.468	-289.551	575.721	140.254	-321.199	142.368	426.330	-454.463	178.307	181.224	-337.209	202.485	367.587	-476.060	258.570	182.041	-220.058	42.682	305.100	-520.287	57.364	201.619
	116	1.21667	-361.719	902.412	285.451	-351.365	891.480	341.550	-373.576	889.867	237.333	-304.050	488.012	329.071	-330.837	475.150	190.424	-343.666	70.744	319.537	-589.365	142.971	198.092	-286.537	988.124	271.750	-264.808	989.701	373.705	-308.265	986.546	169.796	-475.175	1013.596	345.642	-494.334	1012.170	262.899	-290.351	487.828	386.972	-339.467	480.888	131.833	-322.023	502.324	269.908	-321.608	465.487	241.133	-345.151	70.017	357.501	-598.493	149.199	160.169	-345.095	76.420	287.480	-576.482	155.063	225.418	-404.774	1470.543	310.351	-301.380	1390.888	377.721	-323.136	1398.524	223.481	-324.916	1396.856	298.487	-300.380	1194.368	278.182	-262.832	589.191	468.974	-193.877	610.636	157.711	-254.511	654.020	399.604	-280.414	665.226	140.025	-253.913	574.137	371.994	-281.756	576.890	140.498	-320.446	142.217	426.035	-442.061	177.912	180.253	-336.187	202.435	367.311	-464.604	257.934	181.427	-220.048	42.659	304.978	-505.038	57.324	198.181
	117	1.22500	-357.641	902.434	285.229	-347.039	891.535	341.378	-369.502	890.180	237.211	-301.818	487.771	328.737	-322.113	475.941	190.418	-343.702	70.694	319.374	-576.047	140.668	197.209	-282.438	988.400	271.674	-260.473	989.725	373.535	-304.404	987.075	169.812	-470.808	1013.582	346.028	-490.272	1012.309	263.353	-287.905	487.518	386.587	-330.486	481.607	131.783	-319.615	502.128	269.639	-313.221	466.324	241.043	-345.062	69.978	357.343	-585.362	146.957	159.342	-345.034	76.367	287.211	-563.210	152.437	224.618	-400.363	1470.603	310.998	-296.844	1390.898	377.978	-319.120	1398.671	223.900	-320.646	1396.942	298.870	-296.283	1194.460	278.310	-259.582	588.829	468.468	-186.526	612.886	158.517	-251.216	653.647	399.068	-273.455	666.454	140.220	-250.977	573.759	371.505	-273.849	578.190	140.689	-319.743	142.059	425.766	-429.317	177.471	179.122	-335.287	202.316	367.086	-453.073	257.139	180.739	-220.043	42.627	304.869	-489.385	57.222	194.866
	118	1.23333	-353.776	902.304	285.449	-342.890	891.572	341.209	-365.600	890.467	237.093	-299.650	487.516	328.428	-313.528	476.793	190.472	-343.735	70.636	319.219	-562.407	138.076	196.289	-278.486	988.629	271.589	-256.290	989.710	373.351	-300.682	987.548	169.828	-466.689	1013.602	346.460	-486.226	1012.444	263.755	-285.542	487.198	386.231	-321.653	482.383	131.795	-317.398	501.867	269.414	-304.885	467.192	240.972	-344.984	69.929	357.191	-571.939	144.431	158.487	-344.969	76.261	286.991	-549.611	149.583	223.756	-396.045	1470.642	311.635	-292.484	1390.886	378.280	-315.131	1398.760	224.319	-316.474	1396.990	299.264	-292.297	1194.504	278.526	-256.470	588.473	468.003	-179.278	615.249	159.321	-248.081	653.236	398.562	-266.645	667.720	140.377	-248.206	573.290	371.029	-266.046	579.486	140.872	-319.084	141.893	425.523	-416.252	177.012	177.908	-334.468	202.127	366.913	-441.370	256.157	180.060	-220.043	42.586	304.768	-473.319	57.128	191.728
	119	1.24167	-349.877	902.251	285.385	-338.863	891.588	341.032	-361.800	890.724	236.963	-297.554	487.257	328.146	-305.030	477.702	190.575	-343.750	70.581	319.074	-548.425	135.268	195.331	-274.621	988.815	271.501	-252.217	989.658	373.154	-297.026	987.972	169.848	-462.533	1013.598	346.779	-482.239	1012.579	264.108	-283.258	486.877	385.902	-312.927	483.211	131.860	-314.646	501.384	269.105	-296.560	468.189	241.147	-344.902	69.882	357.050	-558.172	141.672	157.592	-344.980	76.140	286.861	-535.739	146.557	222.857	-391.444	1470.689	312.456	-288.447	1390.837	378.566	-310.705	1398.903	224.785	-312.235	1397.064	299.614	-288.398	1194.553	278.718	-253.454	588.129	467.568	-172.132	617.689	160.099	-245.125	652.790	398.065	-259.963	668.936	140.497	-245.310	572.870	370.599	-258.353	580.835	141.132	-318.461	141.724	425.314	-402.907	176.529	176.705	-333.591	201.973	366.730	-428.636	255.330	179.203	-220.048	42.537	304.679	-456.868	57.071	188.828
	120	1.25000	-346.115	902.225	285.742	-334.859	891.585	340.850	-357.997	890.960	236.824	-295.538	487.003	327.887	-296.570	478.650	190.709	-343.739	70.541	318.941	-533.907	132.296	194.270	-270.754	988.974	271.418	-248.167	989.584	372.965	-293.341	988.364	169.871	-458.705	1013.621	347.193	-478.342	1012.724	264.418	-281.047	486.562	385.594	-304.268	484.075	131.959	-312.212	500.918	268.936	-288.704	469.379	241.474	-344.806	69.848	356.920	-543.827	138.706	156.577	-344.915	76.078	286.764	-521.547	143.471	221.920	-387.259	1470.737	313.053	-284.119	1390.886	378.793	-306.654	1399.077	225.080	-308.050	1397.170	299.900	-284.144	1194.691	278.779	-250.487	587.800	467.151	-165.091	620.171	160.829	-242.328	652.367	397.594	-253.369	670.154	140.610	-242.600	572.501	370.212	-250.967	582.253	141.437	-317.861	141.558	425.134	-389.309	176.024	175.615	-332.762	201.887	366.552	-415.618	254.547	178.371	-220.054	42.489	304.609	-440.113	57.047	186.207
	121	1.25833	-342.444	902.184	286.175	-330.819	891.566	340.683	-354.161	891.173	236.701	-293.586	486.757	327.648	-288.113	479.621	190.857	-343.711	70.521	318.820	-518.994	129.215	193.172	-266.853	989.111	271.344	-244.077	989.494	372.802	-289.629	988.728	169.886	-455.008	1013.626	347.627	-474.508	1012.875	264.686	-278.904	486.251	385.306	-295.661	484.957	132.080	-310.936	500.896	268.967	-281.344	470.587	241.687	-344.697	69.834	356.801	-529.023	135.574	155.499	-344.776	76.051	286.674	-506.986	140.340	220.962	-383.817	1470.745	313.245	-279.256	1391.040	379.002	-302.998	1399.220	225.248	-303.816	1397.253	300.183	-278.996	1194.917	278.751	-247.571	587.485	466.748	-158.224	622.644	161.479	-239.465	652.000	397.174	-246.860	671.439	140.677	-240.339	572.109	369.811	-243.854	583.555	141.664	-317.273	141.403	424.972	-375.482	175.515	174.733	-332.075	201.823	366.422	-403.361	253.477	177.900	-220.053	42.450	304.560	-423.135	57.043	183.893
